# ProBuilder 5.2.2
# https://unity3d.com/unity/features/worldbuilding/probuilder
# 10/5/2024 10:42:13 PM

mtllib ./New_Game_Object.mtl
o New Game Object

g New Game Object
v 0.508117 -0.4999999 -0.00547576
v 0.008117497 0.4999999 -0.00547576
v -0.4918825 -0.4999999 -0.00547576
v -0.508117 -0.4999999 0.00547576
v -0.008117497 0.4999999 0.00547576
v 0.4918826 -0.4999999 0.00547576
v -0.01097578 -0.719622 0.02828765
v -0.01097566 0.4935711 -0.003949523
v -0.01097578 -0.5357305 0.4943539
v -0.004024208 -0.528285 0.5039812
v -0.004024088 0.490159 0.004149854
v -0.004024208 -0.7153687 0.02982461

vt -1.101617 0.1113762
vt -0.6016175 1.111376
vt -0.1016175 0.1113762

vn 0 0 -1
vn 0 0 1
vn -1 9.724127E-08 -3.83676E-08
vn 1 -9.806154E-08 3.869125E-08

usemtl Rocket
f 3/3/1 2/2/1 1/1/1
f 6/3/2 5/2/2 4/1/2
f 6/3/2 5/2/2 4/1/2
f 3/3/1 2/2/1 1/1/1
f 9/3/3 8/2/3 7/1/3
f 12/3/4 11/2/4 10/1/4
f 12/3/4 11/2/4 10/1/4
f 9/3/3 8/2/3 7/1/3

