# ProBuilder 5.2.2
# https://unity3d.com/unity/features/worldbuilding/probuilder
# 24-04-2024 22:04:26

mtllib ./Torus.mtl
o Torus

g Torus
v -1 5.960464E-08 -5.960464E-08
v -0.9598076 0.1500001 -5.960464E-08
v -0.8499999 0.2598077 -5.960464E-08
v -0.7 0.3000001 -5.960464E-08
v -0.55 0.2598077 -5.960464E-08
v -0.4401923 0.1500001 -5.960464E-08
v -0.4 2.980232E-08 -5.960464E-08
v -0.4401923 -0.1499999 -5.960464E-08
v -0.55 -0.2598076 -5.960464E-08
v -0.7 -0.3 -5.960464E-08
v -0.8499999 -0.2598076 -5.960464E-08
v -0.9598076 -0.15 -5.960464E-08
v -0.9238795 5.960464E-08 -0.3826835
v -0.8867466 0.1500001 -0.3673025
v -0.7852976 0.2598077 -0.325281
v -0.6467156 0.3000001 -0.2678784
v -0.5081336 0.2598077 -0.2104759
v -0.4066848 0.1500001 -0.1684544
v -0.3695518 2.980232E-08 -0.1530734
v -0.4066848 -0.1499999 -0.1684544
v -0.5081338 -0.2598076 -0.2104759
v -0.6467156 -0.3 -0.2678784
v -0.7852976 -0.2598076 -0.325281
v -0.8867466 -0.15 -0.3673025
v -0.7071067 5.960464E-08 -0.7071069
v -0.6786864 0.1500001 -0.6786866
v -0.6010407 0.2598077 -0.6010408
v -0.4949747 0.3000001 -0.4949749
v -0.3889086 0.2598077 -0.3889087
v -0.311263 0.1500001 -0.3112631
v -0.2828426 2.980232E-08 -0.2828428
v -0.311263 -0.1499999 -0.3112631
v -0.3889087 -0.2598076 -0.3889089
v -0.4949747 -0.3 -0.4949749
v -0.6010407 -0.2598076 -0.6010408
v -0.6786864 -0.15 -0.6786866
v -0.3826834 5.960464E-08 -0.9238796
v -0.3673024 0.1500001 -0.8867466
v -0.3252809 0.2598077 -0.7852976
v -0.2678784 0.3000001 -0.6467157
v -0.2104758 0.2598077 -0.5081338
v -0.1684543 0.1500001 -0.4066848
v -0.1530733 2.980232E-08 -0.3695518
v -0.1684543 -0.1499999 -0.4066848
v -0.2104759 -0.2598076 -0.5081338
v -0.2678784 -0.3 -0.6467157
v -0.3252809 -0.2598076 -0.7852976
v -0.3673024 -0.15 -0.8867466
v 0 5.960464E-08 -1
v 0 0.1500001 -0.9598076
v 0 0.2598077 -0.85
v 0 0.3000001 -0.7
v 0 0.2598077 -0.55
v 0 0.1500001 -0.4401924
v 0 2.980232E-08 -0.4
v 0 -0.1499999 -0.4401924
v 0 -0.2598076 -0.55
v 0 -0.3 -0.7
v 0 -0.2598076 -0.85
v 0 -0.15 -0.9598076
v 0.3826834 5.960464E-08 -0.9238796
v 0.3673024 0.1500001 -0.8867466
v 0.3252809 0.2598077 -0.7852976
v 0.2678784 0.3000001 -0.6467157
v 0.2104759 0.2598077 -0.5081338
v 0.1684543 0.1500001 -0.4066848
v 0.1530734 2.980232E-08 -0.3695518
v 0.1684543 -0.1499999 -0.4066848
v 0.2104759 -0.2598076 -0.5081338
v 0.2678784 -0.3 -0.6467157
v 0.3252809 -0.2598076 -0.7852976
v 0.3673024 -0.15 -0.8867466
v 0.7071067 5.960464E-08 -0.7071068
v 0.6786864 0.1500001 -0.6786866
v 0.6010407 0.2598077 -0.6010408
v 0.4949747 0.3000001 -0.4949748
v 0.3889086 0.2598077 -0.3889087
v 0.311263 0.1500001 -0.3112631
v 0.2828426 2.980232E-08 -0.2828428
v 0.311263 -0.1499999 -0.3112631
v 0.3889087 -0.2598076 -0.3889088
v 0.4949747 -0.3 -0.4949748
v 0.6010407 -0.2598076 -0.6010408
v 0.6786864 -0.15 -0.6786866
v 0.9238794 5.960464E-08 -0.3826835
v 0.8867465 0.1500001 -0.3673026
v 0.7852975 0.2598077 -0.325281
v 0.6467156 0.3000001 -0.2678785
v 0.5081336 0.2598077 -0.2104759
v 0.4066846 0.1500001 -0.1684544
v 0.3695517 2.980232E-08 -0.1530734
v 0.4066846 -0.1499999 -0.1684544
v 0.5081336 -0.2598076 -0.210476
v 0.6467156 -0.3 -0.2678785
v 0.7852975 -0.2598076 -0.325281
v 0.8867465 -0.15 -0.3673026
v 1 5.960464E-08 0
v 0.9598076 0.1500001 0
v 0.85 0.2598077 0
v 0.7 0.3000001 0
v 0.55 0.2598077 0
v 0.4401923 0.1500001 0
v 0.4 2.980232E-08 0
v 0.4401923 -0.1499999 0
v 0.55 -0.2598076 0
v 0.7 -0.3 0
v 0.85 -0.2598076 0
v 0.9598076 -0.15 0
v 0.9238794 5.960464E-08 0.3826834
v 0.8867465 0.1500001 0.3673024
v 0.7852975 0.2598077 0.3252809
v 0.6467156 0.3000001 0.2678783
v 0.5081336 0.2598077 0.2104758
v 0.4066846 0.1500001 0.1684543
v 0.3695517 2.980232E-08 0.1530733
v 0.4066846 -0.1499999 0.1684543
v 0.5081336 -0.2598076 0.2104758
v 0.6467156 -0.3 0.2678783
v 0.7852975 -0.2598076 0.3252809
v 0.8867465 -0.15 0.3673024
v 0.7071069 5.960464E-08 0.7071066
v 0.6786866 0.1500001 0.6786864
v 0.6010409 0.2598077 0.6010406
v 0.4949749 0.3000001 0.4949746
v 0.3889087 0.2598077 0.3889086
v 0.3112631 0.1500001 0.3112628
v 0.2828428 2.980232E-08 0.2828426
v 0.3112631 -0.1499999 0.3112628
v 0.3889089 -0.2598076 0.3889086
v 0.4949749 -0.3 0.4949746
v 0.6010409 -0.2598076 0.6010406
v 0.6786866 -0.15 0.6786864
v 0.3826835 5.960464E-08 0.9238794
v 0.3673025 0.1500001 0.8867465
v 0.325281 0.2598077 0.7852975
v 0.2678784 0.3000001 0.6467156
v 0.2104759 0.2598077 0.5081336
v 0.1684543 0.1500001 0.4066846
v 0.1530734 2.980232E-08 0.3695517
v 0.1684543 -0.1499999 0.4066846
v 0.2104759 -0.2598076 0.5081336
v 0.2678784 -0.3 0.6467156
v 0.325281 -0.2598076 0.7852975
v 0.3673025 -0.15 0.8867465
v 0 5.960464E-08 0.9999999
v 0 0.1500001 0.9598075
v 0 0.2598077 0.8499999
v 0 0.3000001 0.6999998
v 0 0.2598077 0.5499998
v 0 0.1500001 0.4401922
v 0 2.980232E-08 0.3999999
v 0 -0.1499999 0.4401922
v 0 -0.2598076 0.55
v 0 -0.3 0.6999998
v 0 -0.2598076 0.8499999
v 0 -0.15 0.9598075
v -0.3826835 5.960464E-08 0.9238794
v -0.3673025 0.1500001 0.8867465
v -0.3252809 0.2598077 0.7852975
v -0.2678784 0.3000001 0.6467156
v -0.2104759 0.2598077 0.5081336
v -0.1684544 0.1500001 0.4066846
v -0.1530734 2.980232E-08 0.3695517
v -0.1684544 -0.1499999 0.4066846
v -0.2104759 -0.2598076 0.5081336
v -0.2678784 -0.3 0.6467156
v -0.3252809 -0.2598076 0.7852975
v -0.3673025 -0.15 0.8867465
v -0.7071067 5.960464E-08 0.7071068
v -0.6786864 0.1500001 0.6786865
v -0.6010406 0.2598077 0.6010407
v -0.4949747 0.3000001 0.4949747
v -0.3889086 0.2598077 0.3889086
v -0.311263 0.1500001 0.311263
v -0.2828426 2.980232E-08 0.2828426
v -0.311263 -0.1499999 0.311263
v -0.3889086 -0.2598076 0.3889087
v -0.4949747 -0.3 0.4949747
v -0.6010406 -0.2598076 0.6010407
v -0.6786864 -0.15 0.6786865
v -0.9238796 5.960464E-08 0.3826834
v -0.8867466 0.1500001 0.3673024
v -0.7852976 0.2598077 0.3252809
v -0.6467156 0.3000001 0.2678783
v -0.5081336 0.2598077 0.2104758
v -0.4066848 0.1500001 0.1684543
v -0.3695518 2.980232E-08 0.1530733
v -0.4066848 -0.1499999 0.1684543
v -0.5081338 -0.2598076 0.2104758
v -0.6467156 -0.3 0.2678783
v -0.7852976 -0.2598076 0.3252809
v -0.8867466 -0.15 0.3673024

vt 0.9999999 0.3
vt 0.9999999 0.45
vt 1.959808 0.9999999
vt 1.85 0.9999999
vt 1.7 0.9999999
vt 1.55 0.9999999
vt 1.440192 0.9999999
vt -0.9999999 0.45
vt -0.9999999 0.3
vt -0.9999999 0.15
vt -1.440192 0.9999999
vt -1.55 0.9999999
vt -1.7 0.9999999
vt -1.85 0.9999999
vt -1.959808 0.9999999
vt 0.9999999 0.1499999
vt 0.6173165 0.3
vt 0.6326975 0.45
vt 1.886747 0.6326975
vt 1.785298 0.674719
vt 1.646716 0.7321216
vt 1.508134 0.7895241
vt 1.406685 0.8315456
vt -0.8315456 0.45
vt -0.8469266 0.3
vt -0.8315456 0.15
vt -1.406685 0.8315456
vt -1.508134 0.7895241
vt -1.646716 0.7321216
vt -1.785298 0.674719
vt -1.886747 0.6326975
vt 0.6326975 0.1499999
vt 0.2928931 0.3
vt 0.3213134 0.45
vt 1.678686 0.3213134
vt 1.601041 0.3989592
vt 1.494975 0.5050251
vt 1.388909 0.6110913
vt 1.311263 0.6887369
vt -0.6887369 0.45
vt -0.7171572 0.3
vt -0.6887369 0.15
vt -1.311263 0.6887369
vt -1.388909 0.6110911
vt -1.494975 0.5050251
vt -1.601041 0.3989592
vt -1.678686 0.3213134
vt 0.3213134 0.1499999
vt 1.707107 0.3
vt 1.678686 0.45
vt -1.311263 0.45
vt -1.282843 0.3
vt -1.311263 0.15
vt 1.678686 0.1499999
vt 1.382683 0.3
vt 1.367302 0.45
vt 1.367302 0.1132534
vt 1.325281 0.2147024
vt 1.267878 0.3532843
vt 1.210476 0.4918662
vt 1.168454 0.5933152
vt -1.168454 0.45
vt -1.153073 0.3
vt -1.168454 0.15
vt -1.168454 0.5933152
vt -1.210476 0.4918662
vt -1.267878 0.3532843
vt -1.325281 0.2147024
vt -1.367302 0.1132534
vt 1.367302 0.1499999
vt 1.325281 0.5598077
vt -1.210476 0.5598077
vt -1.210476 0.04019237
vt 1.325281 0.04019237
vt 1 0.3
vt 1 0.45
vt 1 0.5598077
vt 1 0.15
vt -1 0.5598077
vt -1 0.45
vt -1 0.3
vt -1 0.15
vt -1 0.04019237
vt -1 0.45
vt -1 0.3
vt 1 0.04019237
vt 1 0.1499999
vt 0.6747191 0.5598077
vt 0.6747191 0.2147024
vt 0.7321216 0.3532843
vt 0.7895241 0.4918662
vt -0.7895241 0.5598077
vt -0.7895241 0.04019237
vt -0.7895241 0.4918662
vt -0.7321216 0.3532843
vt -0.6747191 0.2147024
vt 0.6747191 0.04019237
vt 0.6326976 0.1132534
vt 0.8315457 0.5933152
vt -0.8315457 0.5933152
vt -0.6326976 0.1132534
vt 0.3213136 0.3213134
vt 0.3989593 0.3989592
vt 0.5050253 0.5050252
vt 0.6110914 0.6110913
vt 0.688737 0.6887369
vt -0.688737 0.6887369
vt -0.6110913 0.6110912
vt -0.5050253 0.5050252
vt -0.3989593 0.3989592
vt -0.3213136 0.3213134
vt -0.2928932 0.3
vt -0.3213134 0.45
vt 0.6887369 0.45
vt 0.7171572 0.3
vt 0.6887369 0.15
vt -0.3213134 0.1499999
vt -0.6173165 0.3
vt -0.6326974 0.45
vt 0.1132535 0.6326974
vt 0.2147025 0.674719
vt 0.3532844 0.7321215
vt 0.4918664 0.7895241
vt 0.5933154 0.8315456
vt 0.8315456 0.45
vt 0.8469266 0.3
vt 0.8315456 0.15
vt -0.5933154 0.8315456
vt -0.4918664 0.789524
vt -0.3532844 0.7321215
vt -0.2147025 0.674719
vt -0.1132535 0.6326974
vt -0.6326974 0.1499999
vt 0.04019237 1
vt 0.15 1
vt 0.3 1
vt 0.45 1
vt 0.5598077 1
vt 1 0.3
vt -0.5598077 1
vt -0.45 1
vt -0.3 1
vt -0.15 1
vt -0.04019237 1
vt -1 0.1499999
vt -1.382683 0.3
vt -1.367302 0.45
vt 0.1132535 1.367302
vt 0.2147025 1.325281
vt 0.3532844 1.267878
vt 0.4918664 1.210476
vt 0.5933154 1.168454
vt 1.168454 0.45
vt 1.153073 0.3
vt 1.168454 0.15
vt -0.5933154 1.168454
vt -0.4918664 1.210476
vt -0.3532844 1.267878
vt -0.2147025 1.325281
vt -0.1132535 1.367302
vt -1.367302 0.1499999
vt -1.707107 0.3
vt -1.678686 0.45
vt 0.3213134 1.678686
vt 0.3989591 1.601041
vt 0.5050251 1.494975
vt 0.6110913 1.388909
vt 0.6887369 1.311263
vt 1.311263 0.45
vt 1.282843 0.3
vt 1.311263 0.15
vt -0.6887369 1.311263
vt -0.6110911 1.388909
vt -0.5050251 1.494975
vt -0.3989591 1.601041
vt -0.3213134 1.678686
vt -1.678686 0.1499999
vt 0.6326975 1.886747
vt 0.674719 1.785298
vt 0.7321216 1.646716
vt 0.7895241 1.508134
vt 0.8315457 1.406685
vt -0.8315457 1.406685
vt -0.7895241 1.508134
vt -0.7321216 1.646716
vt -0.674719 1.785298
vt -0.6326975 1.886747
vt -0.674719 0.5598077
vt 0.7895241 0.5598077
vt 0.7895241 0.04019237
vt -0.674719 0.04019237
vt 1 1.85
vt 1 1.7
vt 1 1.55
vt -1 1.55
vt -1 1.7
vt -1 1.85
vt -1.325281 0.5598077
vt 1.325281 1.785298
vt 1.267878 1.646716
vt 1.210476 1.508134
vt 1.210476 0.5598077
vt 1.210476 0.04019237
vt -1.210476 1.508134
vt -1.267878 1.646716
vt -1.325281 1.785298
vt -1.325281 0.04019237
vt 1.367303 1.886747
vt 1.168454 1.406685
vt -1.168454 1.406685
vt -1.367303 1.886747
vt 1.678686 1.678686
vt 1.601041 1.601041
vt 1.494975 1.494975
vt 1.388909 1.388909
vt 1.311263 1.311263
vt -1.311263 1.311263
vt -1.388909 1.388909
vt -1.494975 1.494975
vt -1.601041 1.601041
vt -1.678686 1.678686
vt 1.886747 1.367302
vt 1.785298 1.325281
vt 1.646716 1.267878
vt 1.508134 1.210476
vt 1.406685 1.168454
vt -1.406685 1.168454
vt -1.508134 1.210476
vt -1.646716 1.267878
vt -1.785298 1.325281
vt -1.886747 1.367302

vn -1 1.806533E-07 -1.610171E-07
vn -0.8654668 0.5009663 -7.821772E-08
vn -0.4990167 0.8665923 -4.459892E-08
vn -1.313016E-07 1 3.572176E-08
vn 0.4990167 0.8665923 7.756334E-08
vn 0.8654669 0.5009661 4.693062E-08
vn 1 -8.63994E-08 3.534521E-08
vn 0.8654669 -0.5009661 7.039593E-08
vn 0.4990168 -0.8665923 -1.551267E-08
vn -1.158543E-07 -1 -4.92381E-08
vn -0.4990166 -0.8665924 0
vn -0.8654668 -0.5009664 -4.301975E-08
vn -0.9238795 1.021084E-07 -0.3826835
vn -0.7995871 0.5009661 -0.3311999
vn -0.4610314 0.8665923 -0.1909654
vn 0.4610315 0.8665923 0.1909655
vn 0.7995871 0.5009661 0.3311999
vn 0.9238795 -3.927246E-08 0.3826835
vn 0.7995871 -0.5009663 0.3311998
vn 0.4610314 -0.8665923 0.1909654
vn -0.4610312 -0.8665924 -0.1909653
vn -0.7995871 -0.5009661 -0.3311999
vn -0.7071066 4.712695E-08 -0.7071069
vn -0.6119773 0.5009662 -0.6119776
vn -0.3528582 0.8665923 -0.3528582
vn 0.3528582 0.8665923 0.3528582
vn 0.6119773 0.5009662 0.6119776
vn 0.7071066 -1.099629E-07 0.7071069
vn 0.6119773 -0.5009663 0.6119775
vn 0.352858 -0.8665923 0.3528581
vn -0.352858 -0.8665923 -0.3528581
vn -0.6119774 -0.5009661 -0.6119776
vn -0.3826833 9.425389E-08 -0.9238796
vn -0.3311997 0.5009661 -0.7995871
vn -0.1909654 0.8665923 -0.4610314
vn 0.1909654 0.8665923 0.4610313
vn 0.3311998 0.5009661 0.7995871
vn 0.3826833 -7.069042E-08 0.9238796
vn 0.3311997 -0.5009663 0.7995871
vn 0.1909654 -0.8665923 0.4610314
vn -0.1909653 -0.8665923 -0.4610313
vn -0.3311997 -0.5009662 -0.7995871
vn 0 1.021084E-07 -1
vn 3.910886E-09 0.5009662 -0.8654668
vn 1.939084E-08 0.8665923 -0.4990167
vn 3.49035E-08 0.8665923 0.4990168
vn 7.821771E-09 0.5009662 0.8654668
vn 3.141797E-08 -1.178174E-07 1
vn 2.346531E-08 -0.5009663 0.8654668
vn -1.745175E-08 -0.8665923 0.4990169
vn -1.939083E-08 -0.8665924 -0.4990166
vn -7.821772E-09 -0.5009663 -0.8654668
vn 0.3826834 1.256719E-07 -0.9238796
vn 0.3311998 0.5009661 -0.7995871
vn 0.1909654 0.8665923 -0.4610314
vn -0.1909654 0.8665923 0.4610313
vn -0.3311998 0.5009661 0.7995871
vn -0.3826834 -9.42539E-08 0.9238796
vn -0.3311998 -0.5009661 0.7995871
vn -0.1909654 -0.8665923 0.4610314
vn 0.1909654 -0.8665923 -0.4610313
vn 0.3311998 -0.5009663 -0.7995871
vn 0.7071068 1.256719E-07 -0.7071067
vn 0.6119775 0.5009662 -0.6119775
vn 0.3528581 0.8665923 -0.352858
vn -0.3528582 0.8665923 0.3528581
vn -0.6119775 0.5009661 0.6119775
vn -0.7071068 -5.498144E-08 0.7071067
vn -0.6119775 -0.5009663 0.6119775
vn -0.3528582 -0.8665923 0.3528582
vn 0.352858 -0.8665924 -0.352858
vn 0.6119775 -0.5009663 -0.6119775
vn 0.9238795 8.63994E-08 -0.3826835
vn 0.7995871 0.5009662 -0.3311999
vn 0.4610314 0.8665923 -0.1909656
vn -0.4610314 0.8665923 0.1909655
vn -0.7995871 0.5009661 0.3311999
vn -0.9238795 -1.178174E-07 0.3826836
vn -0.7995871 -0.5009662 0.3311999
vn -0.4610313 -0.8665923 0.1909655
vn 0.4610313 -0.8665923 -0.1909655
vn 0.7995871 -0.5009662 -0.3311999

usemtl Lit
f 2/2/2 14/18/14 13/17/13 1/1/1
f 3/4/3 15/20/15 14/19/14 2/3/2
f 4/5/4 16/21/4 15/20/15 3/4/3
f 5/6/5 17/22/16 16/21/4 4/5/4
f 6/7/6 18/23/17 17/22/16 5/6/5
f 7/9/7 19/25/18 18/24/17 6/8/6
f 8/10/8 20/26/19 19/25/18 7/9/7
f 9/12/9 21/28/20 20/27/19 8/11/8
f 10/13/10 22/29/10 21/28/20 9/12/9
f 11/14/11 23/30/21 22/29/10 10/13/10
f 12/15/12 24/31/22 23/30/21 11/14/11
f 1/1/1 13/17/13 24/32/22 12/16/12
f 14/18/14 26/34/24 25/33/23 13/17/13
f 15/20/15 27/36/25 26/35/24 14/19/14
f 16/21/4 28/37/4 27/36/25 15/20/15
f 17/22/16 29/38/26 28/37/4 16/21/4
f 18/23/17 30/39/27 29/38/26 17/22/16
f 19/25/18 31/41/28 30/40/27 18/24/17
f 20/26/19 32/42/29 31/41/28 19/25/18
f 21/28/20 33/44/30 32/43/29 20/27/19
f 22/29/10 34/45/10 33/44/30 21/28/20
f 23/30/21 35/46/31 34/45/10 22/29/10
f 24/31/22 36/47/32 35/46/31 23/30/21
f 13/17/13 25/33/23 36/48/32 24/32/22
f 26/50/24 38/56/34 37/55/33 25/49/23
f 27/36/25 39/58/35 38/57/34 26/35/24
f 28/37/4 40/59/4 39/58/35 27/36/25
f 29/38/26 41/60/36 40/59/4 28/37/4
f 30/39/27 42/61/37 41/60/36 29/38/26
f 31/52/28 43/63/38 42/62/37 30/51/27
f 32/53/29 44/64/39 43/63/38 31/52/28
f 33/44/30 45/66/40 44/65/39 32/43/29
f 34/45/10 46/67/10 45/66/40 33/44/30
f 35/46/31 47/68/41 46/67/10 34/45/10
f 36/47/32 48/69/42 47/68/41 35/46/31
f 25/49/23 37/55/33 48/70/42 36/54/32
f 38/56/34 50/76/44 49/75/43 37/55/33
f 39/71/35 51/77/45 50/76/44 38/56/34
f 40/59/4 52/75/4 51/78/45 39/58/35
f 41/60/36 53/76/46 52/75/4 40/59/4
f 42/62/37 54/80/47 53/79/46 41/72/36
f 43/63/38 55/81/48 54/80/47 42/62/37
f 44/64/39 56/82/49 55/81/48 43/63/38
f 45/73/40 57/83/50 56/82/49 44/64/39
f 46/67/10 58/85/10 57/84/50 45/66/40
f 47/68/41 59/82/51 58/85/10 46/67/10
f 48/70/42 60/87/52 59/86/51 47/74/41
f 37/55/33 49/75/43 60/87/52 48/70/42
f 50/76/44 62/18/54 61/17/53 49/75/43
f 51/77/45 63/88/55 62/18/54 50/76/44
f 52/75/4 64/90/4 63/89/55 51/78/45
f 53/76/46 65/91/56 64/90/4 52/75/4
f 54/80/47 66/24/57 65/92/56 53/79/46
f 55/81/48 67/25/58 66/24/57 54/80/47
f 56/82/49 68/26/59 67/25/58 55/81/48
f 57/83/50 69/93/60 68/26/59 56/82/49
f 58/85/10 70/95/10 69/94/60 57/84/50
f 59/82/51 71/96/61 70/95/10 58/85/10
f 60/87/52 72/32/62 71/97/61 59/86/51
f 49/75/43 61/17/53 72/32/62 60/87/52
f 62/18/54 74/34/64 73/33/63 61/17/53
f 63/89/55 75/103/65 74/102/64 62/98/54
f 64/90/4 76/104/4 75/103/65 63/89/55
f 65/91/56 77/105/66 76/104/4 64/90/4
f 66/99/57 78/106/67 77/105/66 65/91/56
f 67/25/58 79/41/68 78/40/67 66/24/57
f 68/26/59 80/42/69 79/41/68 67/25/58
f 69/94/60 81/108/70 80/107/69 68/100/59
f 70/95/10 82/109/10 81/108/70 69/94/60
f 71/96/61 83/110/71 82/109/10 70/95/10
f 72/101/62 84/111/72 83/110/71 71/96/61
f 61/17/53 73/33/63 84/48/72 72/32/62
f 74/113/64 86/119/74 85/118/73 73/112/63
f 75/103/65 87/121/75 86/120/74 74/102/64
f 76/104/4 88/122/4 87/121/75 75/103/65
f 77/105/66 89/123/76 88/122/4 76/104/4
f 78/106/67 90/124/77 89/123/76 77/105/66
f 79/115/68 91/126/78 90/125/77 78/114/67
f 80/116/69 92/127/79 91/126/78 79/115/68
f 81/108/70 93/129/80 92/128/79 80/107/69
f 82/109/10 94/130/10 93/129/80 81/108/70
f 83/110/71 95/131/81 94/130/10 82/109/10
f 84/111/72 96/132/82 95/131/81 83/110/71
f 73/112/63 85/118/73 96/133/82 84/117/72
f 86/119/74 98/80/6 97/85/7 85/118/73
f 87/121/75 99/135/5 98/134/6 86/120/74
f 88/122/4 100/136/4 99/135/5 87/121/75
f 89/123/76 101/137/3 100/136/4 88/122/4
f 90/124/77 102/138/2 101/137/3 89/123/76
f 91/126/78 103/139/1 102/76/2 90/125/77
f 92/127/79 104/78/12 103/139/1 91/126/78
f 93/129/80 105/141/11 104/140/12 92/128/79
f 94/130/10 106/142/10 105/141/11 93/129/80
f 95/131/81 107/143/9 106/142/10 94/130/10
f 96/132/82 108/144/8 107/143/9 95/131/81
f 85/118/73 97/85/7 108/145/8 96/133/82
f 98/80/6 110/147/17 109/146/18 97/85/7
f 99/135/5 111/149/16 110/148/17 98/134/6
f 100/136/4 112/150/4 111/149/16 99/135/5
f 101/137/3 113/151/15 112/150/4 100/136/4
f 102/138/2 114/152/14 113/151/15 101/137/3
f 103/139/1 115/154/13 114/153/14 102/76/2
f 104/78/12 116/155/22 115/154/13 103/139/1
f 105/141/11 117/157/21 116/156/22 104/140/12
f 106/142/10 118/158/10 117/157/21 105/141/11
f 107/143/9 119/159/20 118/158/10 106/142/10
f 108/144/8 120/160/19 119/159/20 107/143/9
f 97/85/7 109/146/18 120/161/19 108/145/8
f 110/147/17 122/163/27 121/162/28 109/146/18
f 111/149/16 123/165/26 122/164/27 110/148/17
f 112/150/4 124/166/4 123/165/26 111/149/16
f 113/151/15 125/167/25 124/166/4 112/150/4
f 114/152/14 126/168/24 125/167/25 113/151/15
f 115/154/13 127/170/23 126/169/24 114/153/14
f 116/155/22 128/171/32 127/170/23 115/154/13
f 117/157/21 129/173/31 128/172/32 116/156/22
f 118/158/10 130/174/10 129/173/31 117/157/21
f 119/159/20 131/175/30 130/174/10 118/158/10
f 120/160/19 132/176/29 131/175/30 119/159/20
f 109/146/18 121/162/28 132/177/29 120/161/19
f 122/113/27 134/119/37 133/118/38 121/112/28
f 123/165/26 135/179/36 134/178/37 122/164/27
f 124/166/4 136/180/4 135/179/36 123/165/26
f 125/167/25 137/181/35 136/180/4 124/166/4
f 126/168/24 138/182/34 137/181/35 125/167/25
f 127/115/23 139/126/33 138/125/34 126/114/24
f 128/116/32 140/127/42 139/126/33 127/115/23
f 129/173/31 141/184/41 140/183/42 128/172/32
f 130/174/10 142/185/10 141/184/41 129/173/31
f 131/175/30 143/186/40 142/185/10 130/174/10
f 132/176/29 144/187/39 143/186/40 131/175/30
f 121/112/28 133/118/38 144/133/39 132/117/29
f 134/119/37 146/80/47 145/85/48 133/118/38
f 135/188/36 147/79/46 146/80/47 134/119/37
f 136/180/4 148/193/4 147/192/46 135/179/36
f 137/181/35 149/194/45 148/193/4 136/180/4
f 138/125/34 150/76/44 149/77/45 137/189/35
f 139/126/33 151/139/43 150/76/44 138/125/34
f 140/127/42 152/78/52 151/139/43 139/126/33
f 141/190/41 153/86/51 152/78/52 140/127/42
f 142/185/10 154/196/10 153/195/51 141/184/41
f 143/186/40 155/197/50 154/196/10 142/185/10
f 144/133/39 156/145/49 155/83/50 143/191/40
f 133/118/38 145/85/48 156/145/49 144/133/39
f 146/80/47 158/147/57 157/146/58 145/85/48
f 147/79/46 159/198/56 158/147/57 146/80/47
f 148/193/4 160/200/4 159/199/56 147/192/46
f 149/194/45 161/201/55 160/200/4 148/193/4
f 150/76/44 162/153/54 161/202/55 149/77/45
f 151/139/43 163/154/53 162/153/54 150/76/44
f 152/78/52 164/155/62 163/154/53 151/139/43
f 153/86/51 165/203/61 164/155/62 152/78/52
f 154/196/10 166/205/10 165/204/61 153/195/51
f 155/197/50 167/206/60 166/205/10 154/196/10
f 156/145/49 168/161/59 167/207/60 155/83/50
f 145/85/48 157/146/58 168/161/59 156/145/49
f 158/147/57 170/163/67 169/162/68 157/146/58
f 159/199/56 171/213/66 170/212/67 158/208/57
f 160/200/4 172/214/4 171/213/66 159/199/56
f 161/201/55 173/215/65 172/214/4 160/200/4
f 162/209/54 174/216/64 173/215/65 161/201/55
f 163/154/53 175/170/63 174/169/64 162/153/54
f 164/155/62 176/171/72 175/170/63 163/154/53
f 165/204/61 177/218/71 176/217/72 164/210/62
f 166/205/10 178/219/10 177/218/71 165/204/61
f 167/206/60 179/220/70 178/219/10 166/205/10
f 168/211/59 180/221/69 179/220/70 167/206/60
f 157/146/58 169/162/68 180/177/69 168/161/59
f 170/50/67 182/56/77 181/55/78 169/49/68
f 171/213/66 183/223/76 182/222/77 170/212/67
f 172/214/4 184/224/4 183/223/76 171/213/66
f 173/215/65 185/225/75 184/224/4 172/214/4
f 174/216/64 186/226/74 185/225/75 173/215/65
f 175/52/63 187/63/73 186/62/74 174/51/64
f 176/53/72 188/64/82 187/63/73 175/52/63
f 177/218/71 189/228/81 188/227/82 176/217/72
f 178/219/10 190/229/10 189/228/81 177/218/71
f 179/220/70 191/230/80 190/229/10 178/219/10
f 180/221/69 192/231/79 191/230/80 179/220/70
f 169/49/68 181/55/78 192/70/79 180/54/69
f 182/56/77 2/2/2 1/1/1 181/55/78
f 183/223/76 3/4/3 2/3/2 182/222/77
f 184/224/4 4/5/4 3/4/3 183/223/76
f 185/225/75 5/6/5 4/5/4 184/224/4
f 186/226/74 6/7/6 5/6/5 185/225/75
f 187/63/73 7/9/7 6/8/6 186/62/74
f 188/64/82 8/10/8 7/9/7 187/63/73
f 189/228/81 9/12/9 8/11/8 188/227/82
f 190/229/10 10/13/10 9/12/9 189/228/81
f 191/230/80 11/14/11 10/13/10 190/229/10
f 192/231/79 12/15/12 11/14/11 191/230/80
f 181/55/78 1/1/1 12/16/12 192/70/79

