# ProBuilder 5.2.2
# https://unity3d.com/unity/features/worldbuilding/probuilder
# 10/5/2024 3:18:49 PM

mtllib ./Cone.mtl
o Cone

g Cone
v -1 0 0.5
v -0.8535534 0 0.8535534
v -0.5 1 0.5
v -0.5 0 0.5
v -0.5 0 1
v -0.1464466 0 0.8535534
v 0 0 0.5
v -0.1464466 0 0.1464466
v -0.5 0 0
v -0.8535533 0 0.1464466

vt 0 0
vt 0.3826835 0
vt 0.1913417 1.101539
vt -1 0.5
vt -0.8535534 0.8535534
vt -0.5 0.5
vt -0.5 1
vt -0.1464466 0.8535534
vt 0 0.5
vt -0.1464466 0.1464466
vt -0.5 0
vt -0.8535533 0.1464466

vn -0.8221962 -0.5692042 -1.022535E-07
vn -0.5813805 -0.5692042 0.5813805
vn 5.329984E-08 1 -1.510162E-07
vn 0 -1 0
vn 4.382293E-08 -0.5692042 0.8221962
vn 0.5813805 -0.5692042 0.5813805
vn 0.8221962 -0.5692042 -2.921529E-08
vn 0.5813805 -0.5692042 -0.5813805
vn 4.382293E-08 -0.5692042 -0.8221962
vn -0.5813805 -0.5692042 -0.5813806

usemtl New_Material_2
f 1/1/1 2/2/2 3/3/3
f 4/6/4 2/5/2 1/4/1
f 2/1/2 5/2/5 3/3/3
f 4/6/4 5/7/5 2/5/2
f 5/1/5 6/2/6 3/3/3
f 4/6/4 6/8/6 5/7/5
f 6/1/6 7/2/7 3/3/3
f 4/6/4 7/9/7 6/8/6
f 7/1/7 8/2/8 3/3/3
f 4/6/4 8/10/8 7/9/7
f 8/1/8 9/2/9 3/3/3
f 4/6/4 9/11/9 8/10/8
f 9/1/9 10/2/10 3/3/3
f 4/6/4 10/12/10 9/11/9
f 10/1/10 1/2/1 3/3/3
f 4/6/4 1/4/1 10/12/10

