# ProBuilder 5.2.2
# https://unity3d.com/unity/features/worldbuilding/probuilder
# 10/5/2024 10:44:13 PM

mtllib ./Prism_(2)_(1).mtl
o Prism_(2) (1)

g Prism_(2) (1)
v 0.3790199 -0.4999999 -5.329071E-15
v 0.2434607 0.4999999 -5.329071E-15
v -0.37902 -0.4999999 -5.329071E-15
v -0.3834677 -0.5029998 0.006951574
v 0.2341188 0.5054355 0.006951563
v 0.3616379 -0.5029999 0.0069516
v -0.3103009 -0.3113804 -0.5121412
v 0.2355165 0.5112193 -0.01214159
v -0.3103009 -0.3113804 0.4878583
v -0.2951511 -0.3149349 0.5040928
v 0.2506663 0.5076649 0.004093401
v -0.2951511 -0.3149349 -0.4959067

vt -1.101617 0.1113762
vt -0.6016175 1.111376
vt -0.1016175 0.1113762

vn 0 0 -1
vn -3.499776E-08 3.251574E-08 1
vn -0.8332556 0.552888 4.943206E-08
vn 0.8332556 -0.552888 -3.295471E-08

usemtl Rocket
f 3/3/1 2/2/1 1/1/1
f 6/3/2 5/2/2 4/1/2
f 9/3/3 8/2/3 7/1/3
f 12/3/4 11/2/4 10/1/4

