# ProBuilder 5.2.2
# https://unity3d.com/unity/features/worldbuilding/probuilder
# 02-06-2024 0:10:45

mtllib ./Plane_2.mtl
o Plane 2

g New Game Object
v 0.003475845 0.4874573 0.00547576
v 0.003475845 0.490159 0.004149854
v 0.003475845 0.4279034 0.00547576
v -0.003475785 0.1388658 0.005475819
v -0.003475726 0.4935711 -0.003949523
v -0.003475785 0.4741022 0.00547576
v 0.003475845 0.4757168 -0.00547576
v -0.003475726 0.4618136 -0.00547576
v -0.003475845 -0.4999999 -0.005475819
v 0.003475726 -0.4999999 -0.005475819
v -0.003475726 0.4942836 0.00547576
v -0.0006175637 0.4999999 0.00547576
v 0.003475904 0.4918131 0.00547576
v 0.003475726 -0.4999999 0.00547576
v -0.003475845 -0.4999999 0.00547576

vt -0.6029439 1.108723
vt -0.6016175 1.111376
vt -0.5757966 1.059734
vt -0.747804 0.8190028
vt -0.5921602 1.092461
vt -0.5894759 1.087093
vt -0.5825244 1.07319
vt -0.5825242 0.1113762
vt -0.5894758 0.1113762
vt -0.6044757 1.10566
vt -0.597524 1.103189
vt -0.5975242 0.1113762
vt -0.6044758 0.1113762

vn 1 0 0
vn -1 -1.124385E-12 -6.323913E-06
vn -6.197111E-08 6.152959E-08 -1
vn 0 0 1

usemtl Rocket
f 3/3/1 2/2/1 1/1/1
f 6/5/2 5/2/2 4/4/2
f 13/11/4 12/2/4 11/10/4
f 9/8/3 8/7/3 7/6/3
f 7/6/3 10/9/3 9/8/3
f 14/12/4 13/11/4 11/10/4
f 11/10/4 15/13/4 14/12/4

