# ProBuilder 5.2.2
# https://unity3d.com/unity/features/worldbuilding/probuilder
# 02-06-2024 0:10:08

mtllib ./Plane.mtl
o Plane

g New Game Object
v -0.004024208 -0.418474 0.2547285
v -0.004024088 0.5972683 -0.243777
v -0.004024088 0.5377136 -0.2437769
v -0.004024208 -0.6055577 -0.2194281
v 0.508117 -0.3901889 -0.2547285
v 0.008117497 0.6098109 -0.2547285
v -0.004024088 0.5855278 -0.2547285
v -0.004024208 -0.3901889 -0.2547286
v -0.004024029 0.6016241 -0.243777
v 0.4918826 -0.3901889 -0.243777
v -0.004024208 -0.3901889 -0.243777
v -0.01097578 -0.6098109 -0.2209651
v -0.01097572 0.2486776 -0.243777
v -0.01097572 0.5839132 -0.243777
v -0.01097578 -0.4259194 0.2451011
v -0.01097566 0.5716246 -0.2547285
v -0.4918825 -0.3901889 -0.2547285
v -0.01097578 -0.3901889 -0.2547286
v -0.508117 -0.3901889 -0.243777
v -0.01097566 0.6040946 -0.243777
v -0.01097578 -0.3901889 -0.243777

vt -1.101617 0.1113762
vt -0.6029438 1.108723
vt -0.5757963 1.059734
vt -0.1016175 0.1113762
vt -0.6016175 1.111376
vt -0.5894759 1.087093
vt -0.5894758 0.1113762
vt -0.597524 1.103189
vt -0.5975242 0.1113762
vt -0.7478037 0.8190034
vt -0.5921602 1.092461
vt -0.5825244 1.07319
vt -0.5825242 0.1113762
vt -0.6044757 1.10566
vt -0.6044758 0.1113762

vn 1 -5.17006E-08 1.39966E-07
vn 5.819162E-08 3.054403E-08 -1
vn 0 0 1
vn -1 2.4779E-08 -1.316215E-06

usemtl Rocket
f 11/9/3 10/4/3 9/8/3
f 18/13/2 17/4/2 16/12/2
f 21/15/3 20/14/3 19/1/3
f 3/3/1 2/2/1 1/1/1
f 1/1/1 4/4/1 3/3/1
f 7/6/2 6/5/2 5/1/2
f 5/1/2 8/7/2 7/6/2
f 14/11/4 13/10/4 12/1/4
f 12/1/4 15/4/4 14/11/4

